<?xml version="1.0" standalone="no"?>
<!DOCTYPE svg PUBLIC "-//W3C//DTD SVG 1.1//EN" "http://www.w3.org/Graphics/SVG/1.1/DTD/svg11.dtd">
<svg xmlns="http://www.w3.org/2000/svg" id="b" data-name="Layer 2" width="341.5299987792969" height="85.91999816894531" viewBox="0 0 341.53 85.92">
  <g id="c" data-name="Layer 1">
    <g>
      <path d="M.014,84.12c.079-.319.579-.66,1.5-1.021.918-.36,1.659-.738,2.22-1.14.559-.399.84-1.039.84-1.92V3.96c-.321-.319-.72-.64-1.2-.96-1.041-.64-1.601-1.08-1.68-1.32-.081-.159-.06-.318.06-.479.12-.16.339-.24.66-.24h8.88c1.12,0,2.08.359,2.88,1.08.799.72,1.999,2.16,3.6,4.319l44.88,62.28V5.88c0-.799-.261-1.42-.78-1.86-.521-.438-1.281-.84-2.28-1.2-1.001-.359-1.542-.699-1.62-1.02v-.24c0-.399.279-.6.84-.6h10.56c.64,0,.919.281.84.84-.081.32-.581.66-1.5,1.02-.92.36-1.661.741-2.22,1.141-.561.401-.84,1.04-.84,1.92v77.64c0,.321-.12.642-.36.96-.24.321-.561.48-.96.48-.561,0-.96-.199-1.2-.601v.12L7.574,7.92v72.12c0,.801.259,1.421.78,1.859.52.441,1.279.84,2.28,1.2.999.36,1.539.701,1.62,1.021v.239c0,.401-.281.601-.84.601H.853c-.641,0-.92-.279-.84-.84Z"/>
      <path d="M101.952,80.1c-6.281-3.879-11.241-9.1-14.88-15.66-3.641-6.559-5.46-13.759-5.46-21.6,0-7.759,1.819-14.92,5.46-21.48,3.64-6.559,8.599-11.76,14.88-15.6,6.279-3.84,13.179-5.76,20.7-5.76,7.6,0,14.539,1.92,20.82,5.76,6.279,3.84,11.259,9.041,14.94,15.6,3.679,6.561,5.52,13.722,5.52,21.48,0,7.841-1.821,15.041-5.46,21.6-3.642,6.561-8.622,11.781-14.94,15.66-6.321,3.882-13.281,5.82-20.88,5.82-7.521,0-14.42-1.938-20.7-5.82ZM96.672,63.479c3.16,6.081,7.24,10.881,12.24,14.4,4.999,3.521,10.539,5.28,16.62,5.28,5.76,0,10.839-1.62,15.24-4.86,4.399-3.24,7.819-7.639,10.26-13.2,2.439-5.56,3.66-11.7,3.66-18.42,0-1.839-.041-3.198-.12-4.08-.561-6.96-2.321-13.479-5.28-19.56-2.96-6.079-6.98-10.98-12.06-14.7-5.081-3.72-10.901-5.58-17.46-5.58-5.601,0-10.601,1.661-15,4.979-4.4,3.321-7.821,7.74-10.26,13.261-2.441,5.52-3.66,11.52-3.66,18,0,1.841.04,3.239.12,4.2.639,7.439,2.539,14.201,5.7,20.279Z"/>
      <path d="M178.331,84.12c.079-.319.259-.819.54-1.5.279-.679.42-1.74.42-3.181V6.479c0-1.519-.12-2.599-.36-3.24-.24-.639-.401-1.119-.48-1.439v-.24c0-.399.279-.6.84-.6h20.64c11.119,0,19.68,1.859,25.68,5.58,6,3.72,9,9.06,9,16.02,0,6.72-2.441,12.18-7.32,16.38-4.881,4.2-11.64,6.581-20.28,7.141,4,.881,7.44,2.34,10.32,4.38s5.4,4.901,7.561,8.58l11.64,19.8c.799,1.361,1.459,2.301,1.98,2.82.52.521,1.219.98,2.1,1.38.96.479,1.519.84,1.68,1.08l.12.239c0,.401-.32.601-.96.601h-1.92c-2.64,0-5.061-.52-7.26-1.561-2.201-1.038-4.221-2.919-6.06-5.64l-11.521-18.96c-2-3.279-4.061-5.719-6.18-7.32-2.121-1.6-4.661-2.719-7.62-3.359-2.961-.64-7.122-1.039-12.48-1.2v32.52c0,1.44.139,2.502.42,3.181.279.681.459,1.181.54,1.5v.239c0,.401-.281.601-.84.601h-9.36c-.641,0-.92-.279-.84-.84ZM193.211,44.64h9.84c7.12,0,12.7-2.02,16.74-6.06,4.039-4.039,6.061-9.259,6.061-15.66,0-6.319-2.241-11.199-6.721-14.641-4.481-3.438-10.88-5.159-19.2-5.159h-11.16c-.24.561-.36,1.68-.36,3.359v38.16h4.8Z"/>
      <path d="M255.011,84.12c.079-.319.259-.819.54-1.5.279-.679.42-1.74.42-3.181V6.479c0-1.439-.141-2.499-.42-3.18-.281-.679-.461-1.18-.54-1.5v-.24c0-.399.279-.6.84-.6h9.36c.64,0,.919.281.84.84-.08.32-.261.821-.54,1.5-.281.681-.42,1.74-.42,3.18v72.96c0,1.44.139,2.502.42,3.181.279.681.46,1.181.54,1.5v.239c0,.401-.281.601-.84.601h-9.36c-.641,0-.92-.279-.84-.84Z"/>
      <path d="M286.45,84.12c.079-.319.24-.799.48-1.44.24-.64.36-1.72.36-3.24V6.479c0-1.519-.12-2.599-.36-3.24-.24-.639-.401-1.119-.48-1.439v-.24c0-.399.279-.6.841-.6h43.439c2.4,0,4.239.12,5.521.359,1.278.24,2.159.762,2.64,1.561,1.44,2.321,2.28,3.84,2.52,4.56.079.081.12.24.12.48,0,.479-.281.72-.84.72s-1.16-.3-1.8-.9c-.642-.6-1.121-1.02-1.44-1.26-2.721-2.16-6.521-3.24-11.399-3.24l-29.4.12c-.161.801-.24,1.842-.24,3.12v30.96h36.12v1.44h-36.12v40.56c0,1.281.079,2.321.24,3.12l29.4.12c4.879,0,8.679-1.08,11.399-3.24.319-.239.739-.6,1.261-1.08.519-.479.979-.799,1.38-.96.159-.078.359-.12.6-.12.559,0,.84.24.84.721,0,.561-.38,1.421-1.14,2.58-.762,1.16-1.26,1.979-1.5,2.46-.48.801-1.361,1.319-2.64,1.56-1.281.24-3.12.36-5.521.36h-43.439c-.642,0-.921-.279-.841-.84Z"/>
    </g>
  </g>
</svg>